<svg width="14" height="14" viewBox="0 0 26 26" fill="none" xmlns="http://www.w3.org/2000/svg">
<rect width="26" height="26" rx="13" fill="#D5FF3F"/>
<path d="M18.3333 15.3333C17.5033 15.3333 16.7033 15.2 15.9533 14.9533C15.7233 14.88 15.46 14.9333 15.2767 15.1167L13.81 16.5867C11.92 15.6267 10.38 14.0833 9.41667 12.1967L10.8833 10.7267C11.0667 10.5433 11.12 10.28 11.0467 10.05C10.8 9.3 10.6667 8.49667 10.6667 7.66667C10.6667 7.29667 10.37 7 10 7H7.66667C7.29667 7 7 7.29667 7 7.66667C7 13.9267 12.0733 19 18.3333 19C18.7033 19 19 18.7033 19 18.3333V16C19 15.63 18.7033 15.3333 18.3333 15.3333Z" fill="black"/>
</svg>
